<?xml version="1.0" encoding="utf-8"?>
<!-- Generator: Adobe Illustrator 23.0.6, SVG Export Plug-In . SVG Version: 6.00 Build 0)  -->
<svg version="1.1" id="Layer_1" xmlns="http://www.w3.org/2000/svg" xmlns:xlink="http://www.w3.org/1999/xlink" x="0px" y="0px"
	 viewBox="0 0 1500 1385" style="enable-background:new 0 0 1500 1385;" xml:space="preserve">
<style type="text/css">
	.st0{display:none;}
	.st1{display:inline;fill:none;stroke:#0D2240;stroke-miterlimit:10;}
	.st2{display:inline;fill:#008AFF;}
	.st3{display:inline;fill:#48B1FF;}
	.st4{display:inline;fill:#0DFFEF;}
	.st5{display:inline;fill:#18E8D4;}
	.st6{fill:none;stroke:#0D2240;stroke-width:4;stroke-miterlimit:10;}
	.st7{fill:#48B1FF;}
</style>
<g class="st0">
	<line class="st1" x1="368.1" y1="918.5" x2="717.1" y2="1076.8"/>
	<line class="st1" x1="1072.5" y1="1012.2" x2="717.1" y2="1076.8"/>
	<line class="st1" x1="911" y1="892.7" x2="717.1" y2="1076.8"/>
	<line class="st1" x1="911" y1="892.7" x2="697.7" y2="698.8"/>
	<line class="st1" x1="717.1" y1="1076.8" x2="697.7" y2="698.8"/>
	<line class="st1" x1="707.4" y1="524.3" x2="697.7" y2="698.8"/>
	<line class="st1" x1="707.4" y1="524.3" x2="781.7" y2="382.1"/>
	<line class="st1" x1="943.3" y1="381.6" x2="781.7" y2="382.1"/>
	<line class="st1" x1="596.8" y1="270.3" x2="781.7" y2="382.1"/>
	<line class="st1" x1="1072.5" y1="1012.2" x2="1237.3" y2="850.1"/>
	<line class="st1" x1="1340.7" y1="682.6" x2="1237.3" y2="850.1"/>
	<line class="st1" x1="1011.1" y1="546.9" x2="1186.7" y2="593.1"/>
	<line class="st1" x1="1340.7" y1="682.6" x2="1263.2" y2="462.9"/>
	<line class="st1" x1="1059.2" y1="291.5" x2="1263.2" y2="462.9"/>
	<line class="st1" x1="858.8" y1="248" x2="1059.2" y2="291.5"/>
	<line class="st1" x1="596.8" y1="270.3" x2="858.8" y2="248"/>
	<line class="st1" x1="596.8" y1="270.3" x2="342.3" y2="395.1"/>
	<line class="st1" x1="224.4" y1="529.3" x2="342.3" y2="395.1"/>
	<line class="st1" x1="227.4" y1="526.3" x2="400.4" y2="575.9"/>
	<line class="st1" x1="227.4" y1="526.3" x2="156.5" y2="725.6"/>
	<line class="st1" x1="368.1" y1="918.5" x2="156.5" y2="725.6"/>
	<line class="st1" x1="559.3" y1="882.5" x2="339" y2="753.7"/>
	<line class="st1" x1="559.3" y1="882.5" x2="759.1" y2="844.2"/>
	<line class="st1" x1="559.3" y1="882.5" x2="368.1" y2="918.5"/>
	<line class="st1" x1="911" y1="892.7" x2="759.1" y2="844.2"/>
	<line class="st1" x1="978.8" y1="702" x2="759.1" y2="844.2"/>
	<line class="st1" x1="911" y1="892.7" x2="1098.4" y2="753.7"/>
	<line class="st1" x1="1185.6" y1="592.2" x2="1098.4" y2="753.7"/>
	<line class="st1" x1="1185.6" y1="592.2" x2="1079" y2="427.4"/>
	<line class="st1" x1="1185.6" y1="592.2" x2="1263.6" y2="462.5"/>
	<line class="st1" x1="1263.2" y1="462.9" x2="1079" y2="427.4"/>
	<line class="st1" x1="942.8" y1="381.6" x2="1079" y2="427.4"/>
	<line class="st1" x1="858.8" y1="248" x2="781.7" y2="382.1"/>
	<line class="st1" x1="634.2" y1="398.8" x2="781.7" y2="382.1"/>
	<line class="st1" x1="634.2" y1="398.8" x2="489.5" y2="417"/>
	<line class="st1" x1="400.4" y1="575.9" x2="489.5" y2="417"/>
	<line class="st1" x1="555.5" y1="540.5" x2="489.5" y2="417"/>
	<line class="st1" x1="555.5" y1="540.5" x2="634.2" y2="398.8"/>
	<line class="st1" x1="555.5" y1="540.5" x2="400.4" y2="576"/>
	<line class="st1" x1="517.8" y1="662.9" x2="339" y2="753.7"/>
	<line class="st1" x1="400.4" y1="576" x2="313.2" y2="669.7"/>
	<line class="st1" x1="156.5" y1="725.6" x2="313.2" y2="669.7"/>
	<line class="st1" x1="339" y1="753.7" x2="313.2" y2="669.7"/>
	<line class="st1" x1="594.3" y1="818.3" x2="516.8" y2="663.2"/>
	<line class="st1" x1="594.3" y1="818.3" x2="697.7" y2="698.8"/>
	<line class="st1" x1="859.3" y1="637.4" x2="697.7" y2="698.8"/>
	<line class="st1" x1="859.3" y1="637.4" x2="978.8" y2="702"/>
	<line class="st1" x1="1098.7" y1="755" x2="978.8" y2="702"/>
	<line class="st1" x1="1011.1" y1="546.9" x2="978.8" y2="702"/>
	<line class="st1" x1="1011.1" y1="546.9" x2="942.8" y2="381.6"/>
	<line class="st1" x1="1011.1" y1="546.9" x2="839.9" y2="501.7"/>
	<line class="st1" x1="942.8" y1="383.6" x2="839.9" y2="501.7"/>
	<line class="st1" x1="859.3" y1="637.4" x2="839.9" y2="501.7"/>
	<line class="st1" x1="707.4" y1="524.3" x2="839.9" y2="501.7"/>
	<line class="st1" x1="707.4" y1="524.3" x2="555.5" y2="540.5"/>
	<line class="st1" x1="516.8" y1="663.2" x2="555.5" y2="540.5"/>
	<line class="st1" x1="1185.6" y1="592.2" x2="1340.7" y2="682.6"/>
	<line class="st1" x1="1098.4" y1="753.7" x2="1340.7" y2="682.6"/>
	<line class="st1" x1="1098.4" y1="753.7" x2="1072.5" y2="1012.2"/>
	<line class="st1" x1="1059.2" y1="291.5" x2="942.8" y2="383.6"/>
	<line class="st1" x1="858.8" y1="248" x2="942.8" y2="383.6"/>
	<line class="st1" x1="1059.2" y1="291.5" x2="1079.5" y2="427.1"/>
	<line class="st1" x1="1009.6" y1="548.5" x2="1098.7" y2="755"/>
	<line class="st1" x1="1237.3" y1="850.1" x2="1098.7" y2="755"/>
	<line class="st1" x1="489.5" y1="417" x2="596.8" y2="270.3"/>
	<line class="st1" x1="489.5" y1="417" x2="340.7" y2="395.7"/>
	<line class="st1" x1="368" y1="917.9" x2="339.7" y2="755"/>
	<line class="st1" x1="1071.4" y1="1012" x2="911.5" y2="892.6"/>
	<line class="st1" x1="717.2" y1="1076.8" x2="559.3" y2="882.5"/>
	<line class="st1" x1="634.2" y1="398.8" x2="596.8" y2="270.3"/>
	<circle class="st2" cx="156.2" cy="725.5" r="55.7"/>
	<circle class="st2" cx="341.1" cy="395.9" r="47.4"/>
	<circle class="st2" cx="1264.6" cy="462.2" r="45.5"/>
	<circle class="st3" cx="839.4" cy="502" r="20.4"/>
	<circle class="st2" cx="597" cy="270.4" r="36.5"/>
	<circle class="st2" cx="782.9" cy="381.2" r="36.5"/>
	<circle class="st4" cx="555" cy="539.7" r="27"/>
	<circle class="st2" cx="697.1" cy="700.3" r="39.6"/>
	<circle class="st2" cx="911.7" cy="893.6" r="39.6"/>
	<circle class="st4" cx="594.9" cy="817.7" r="46.1"/>
	<circle class="st4" cx="340.1" cy="755" r="29.6"/>
	<circle class="st5" cx="1098.3" cy="755.2" r="29.6"/>
	<circle class="st2" cx="707.2" cy="523.6" r="27.8"/>
	<circle class="st2" cx="1078.8" cy="426.7" r="27.8"/>
	<circle class="st5" cx="1339.5" cy="681.3" r="61"/>
	<circle class="st5" cx="1071.3" cy="1011.5" r="73.9"/>
	<circle class="st2" cx="718.5" cy="1076.2" r="87.4"/>
	<circle class="st3" cx="367.8" cy="917.8" r="73.9"/>
	<circle class="st3" cx="227.1" cy="526.4" r="39.1"/>
	<circle class="st4" cx="489.6" cy="417.4" r="47.4"/>
	<circle class="st3" cx="942.5" cy="383.1" r="31.2"/>
	<circle class="st4" cx="634.1" cy="398.9" r="30.4"/>
	<circle class="st4" cx="398.9" cy="575.3" r="36.5"/>
	<circle class="st3" cx="858.6" cy="636.8" r="31.8"/>
	<circle class="st3" cx="979.6" cy="702.1" r="39.6"/>
	<circle class="st3" cx="518" cy="663.1" r="52.6"/>
	<circle class="st2" cx="314.4" cy="670.3" r="31.3"/>
	<circle class="st5" cx="1186.3" cy="592.9" r="29.6"/>
	<circle class="st5" cx="1059.6" cy="291.1" r="37.6"/>
	<circle class="st2" cx="859.1" cy="248.2" r="27.8"/>
	<circle class="st3" cx="1237" cy="849.9" r="43.5"/>
	
		<ellipse transform="matrix(0.1602 -0.9871 0.9871 0.1602 306.7439 1457.1343)" class="st3" cx="1009.7" cy="548.3" rx="53.5" ry="53.5"/>
	<circle class="st3" cx="757.9" cy="844.1" r="40.9"/>
	<circle id="_x31_" class="st3" cx="558.9" cy="882.9" r="44.4"/>
</g>
<polygon id="line3" class="st6" points="1059,369 951,1059 333,507 "/>
<circle id="circle3" class="st7" cx="333" cy="507" r="174"/>
<circle id="circle2" class="st7" cx="1059" cy="369" r="174"/>
<circle id="circle1" class="st7" cx="951" cy="1059" r="174"/>
</svg>
